<svg xmlns="http://www.w3.org/2000/svg" viewBox="0 0 64 64" role="img" aria-label="Tournament darts board">
  <!-- Same app-icon tile, but a gold rim + trophy badge mark it as the tournament board. -->
  <defs>
    <linearGradient id="bg" x1="0" y1="0" x2="0" y2="1">
      <stop offset="0" stop-color="#273449"/>
      <stop offset="1" stop-color="#0f172a"/>
    </linearGradient>
  </defs>
  <rect width="64" height="64" rx="14" fill="url(#bg)"/>
  <circle cx="32" cy="32" r="22" fill="#fbbf24"/>
  <circle cx="32" cy="32" r="20" fill="#1e293b"/>
  <circle cx="32" cy="32" r="19" fill="#22c55e"/>
  <circle cx="32" cy="32" r="17" fill="#1e293b"/>
  <circle cx="32" cy="32" r="11" fill="#ef4444"/>
  <circle cx="32" cy="32" r="9" fill="#273449"/>
  <g stroke="#0f172a" stroke-width="1.2" opacity="0.7">
    <line x1="32" y1="12" x2="32" y2="52"/>
    <line x1="12" y1="32" x2="52" y2="32"/>
    <line x1="17.9" y1="17.9" x2="46.1" y2="46.1"/>
    <line x1="46.1" y1="17.9" x2="17.9" y2="46.1"/>
  </g>
  <circle cx="32" cy="32" r="4.5" fill="#22c55e"/>
  <circle cx="32" cy="32" r="2.6" fill="#ef4444"/>
  <!-- Trophy badge, bottom-right -->
  <circle cx="49" cy="49" r="10.5" fill="#0f172a" stroke="#fbbf24" stroke-width="1.6"/>
  <path d="M45.5 45 H52.5 V47 A3.5 3.5 0 0 1 45.5 47 Z" fill="#fbbf24"/>
  <path d="M45.5 45.4 C43 45.4 43 48.4 45.6 48.4 M52.5 45.4 C55 45.4 55 48.4 52.4 48.4"
        fill="none" stroke="#fbbf24" stroke-width="1.3" stroke-linecap="round"/>
  <rect x="48.2" y="48.4" width="1.6" height="2.6" fill="#fbbf24"/>
  <rect x="46.4" y="50.8" width="5.2" height="1.6" rx="0.8" fill="#fbbf24"/>
</svg>
